<svg width="2293" height="581" viewBox="0 0 2293 581" fill="none" xmlns="http://www.w3.org/2000/svg">
<circle cx="290.5" cy="290.5" r="290.5" fill="#D9D9D9"/>
<path d="M125.91 191.023C111.561 182.739 111.561 169.307 125.91 161.023L264.514 81C278.863 72.7158 302.127 72.7157 316.476 81L455.08 161.023C469.429 169.307 469.429 182.739 455.08 191.023L316.476 271.046C302.127 279.33 278.863 279.33 264.514 271.046L125.91 191.023Z" fill="black"/>
<path d="M307.434 331.87C307.434 315.301 319.066 295.154 333.415 286.87L472.019 206.847C486.368 198.562 498 205.278 498 221.847L498 381.893C498 398.461 486.368 418.608 472.019 426.893L333.415 506.916C319.066 515.2 307.434 508.484 307.434 491.916L307.434 331.87Z" fill="black"/>
<rect width="220.046" height="220.046" rx="30" transform="matrix(0.866025 0.5 -2.20305e-08 1 92 193.847)" fill="black"/>
<path d="M859.4 188H972.52L1003.32 218.8V353.2L972.52 384H859.4V188ZM963 364.96L982.04 346.2V225.8L963 207.04H880.68V364.96H963ZM1041.14 358.24V270.32L1066.9 244.56H1137.18L1163.22 270.32V320.44H1061.86V351.8L1075.86 365.52H1128.22L1142.22 351.8V341.16H1162.94V358.24L1137.18 384H1066.9L1041.14 358.24ZM1142.5 302.52V276.76L1128.5 263.04H1075.86L1061.86 276.76V302.52H1142.5ZM1181.36 244.56H1202.64L1244.08 363.28H1245.2L1286.64 244.56H1307.92L1256.68 384H1232.6L1181.36 244.56ZM1326.23 361.04V343.68H1346.95V355.16L1358.15 366.08H1409.67L1420.87 355.16V333.6L1409.67 322.4H1349.47L1327.35 300.28V267.52L1350.31 244.56H1415.83L1438.79 267.52V284.88H1418.07V273.4L1406.87 262.48H1359.27L1348.07 273.4V293.84L1359.27 305.04H1418.63L1441.59 328V361.04L1418.63 384H1349.19L1326.23 361.04ZM1476.52 244.56H1496.68V269.48L1521.6 244.56H1573.96L1599.72 270.32V358.24L1573.96 384H1520.2L1497.24 363.84V443.36H1476.52V244.56ZM1565 365.52L1579 351.8V276.76L1565 263.04H1527.2L1497.24 293V341.16L1524.12 365.52H1565ZM1638.94 184.08H1659.66V273.68L1688.78 244.56H1732.18L1757.94 270.32V384H1737.22V276.76L1723.22 263.04H1694.38L1659.66 297.76V384H1638.94V184.08ZM1795.83 358.24V270.32L1821.59 244.56H1891.87L1917.91 270.32V320.44H1816.55V351.8L1830.55 365.52H1882.91L1896.91 351.8V341.16H1917.62V358.24L1891.87 384H1821.59L1795.83 358.24ZM1897.19 302.52V276.76L1883.19 263.04H1830.55L1816.55 276.76V302.52H1897.19ZM1955.58 244.56H1975.74V269.48L2000.66 244.56H2036.78V263.04H2005.98L1976.3 292.72V384H1955.58V244.56ZM2053.4 358.24V270.32L2079.16 244.56H2149.44L2175.48 270.32V320.44H2074.12V351.8L2088.12 365.52H2140.48L2154.48 351.8V341.16H2175.2V358.24L2149.44 384H2079.16L2053.4 358.24ZM2154.76 302.52V276.76L2140.76 263.04H2088.12L2074.12 276.76V302.52H2154.76Z" fill="white"/>
</svg>
